<?xml version="1.0" standalone="no"?>
<!DOCTYPE svg PUBLIC "-//W3C//DTD SVG 20010904//EN"
 "http://www.w3.org/TR/2001/REC-SVG-20010904/DTD/svg10.dtd">
<svg version="1.0" xmlns="http://www.w3.org/2000/svg"
 width="800.000000pt" height="533.000000pt" viewBox="0 0 800.000000 533.000000"
 preserveAspectRatio="xMidYMid meet">
<metadata>
Created by potrace 1.16, written by Peter Selinger 2001-2019
</metadata>
<g transform="translate(0.000000,533.000000) scale(0.100000,-0.100000)"
fill="#000000" stroke="none">
<path d="M2634 3401 c-15 -7 -25 -25 -34 -63 -7 -29 -13 -55 -13 -58 0 -3 -6
-25 -14 -49 -7 -24 -10 -48 -6 -54 3 -6 1 -7 -6 -3 -6 4 -18 2 -26 -4 -8 -7
-15 -9 -15 -6 0 4 -7 1 -15 -8 -8 -8 -15 -19 -15 -25 0 -6 -4 -11 -8 -11 -12
0 -16 -52 -17 -217 0 -83 -2 -151 -5 -151 -20 1 -30 -4 -25 -12 3 -5 -1 -10
-10 -10 -22 0 -133 -113 -149 -152 -14 -32 -15 -128 -3 -175 18 -70 76 -127
166 -162 62 -25 212 -51 296 -51 37 0 87 -10 130 -25 109 -38 237 -52 342 -36
48 6 113 21 145 32 46 15 85 19 198 19 171 0 191 7 214 77 29 89 76 338 76
402 0 20 -7 40 -17 48 -10 8 -12 11 -4 7 9 -4 12 -3 8 3 -4 6 -20 16 -36 23
-36 14 -42 27 -28 60 26 65 33 137 17 186 -17 50 -74 110 -118 125 -20 7 -37
11 -37 9 0 -2 -9 2 -21 8 -46 25 -161 40 -314 41 -74 1 -138 5 -141 9 -3 4
-11 38 -17 76 -10 61 -16 75 -50 107 l-38 37 -194 6 c-113 4 -204 2 -216 -3z
m76 -69 c0 -9 -4 -32 -9 -49 -5 -18 -6 -35 -3 -37 4 -2 64 -7 133 -11 l126 -7
7 39 c14 75 18 81 44 64 11 -7 9 -27 -14 -107 -15 -55 -29 -101 -30 -103 -2
-2 -28 0 -58 3 l-54 7 5 40 6 39 -70 0 -70 0 -9 -32 c-8 -26 -16 -34 -38 -36
-55 -7 -56 -2 -29 107 21 83 29 101 44 101 11 0 19 -7 19 -18z m835 -223 c22
-6 54 -17 71 -25 35 -17 74 -79 74 -118 0 -34 -24 -91 -56 -133 -36 -47 -122
-113 -147 -113 -17 0 -14 5 18 26 98 65 154 142 157 217 5 118 -34 132 -442
161 -30 2 22 2 115 0 94 -2 188 -8 210 -15z m-857 -4 c2 -1 -9 -49 -23 -106
-34 -133 -29 -149 49 -149 l54 0 16 53 c9 28 24 85 33 126 l18 73 62 -6 c75
-8 93 -14 93 -31 0 -23 -31 -88 -93 -198 -57 -101 -63 -108 -87 -103 -14 3
-84 9 -157 12 l-131 7 -7 56 c-7 71 10 247 26 267 10 12 26 14 78 8 36 -3 67
-8 69 -9z m631 -200 c17 -30 31 -58 31 -62 0 -9 -158 -5 -210 6 l-35 7 40 41
c50 53 104 83 126 72 9 -5 31 -33 48 -64z m39 -100 c2 -2 6 -21 9 -43 6 -46
20 -40 -142 -63 -91 -13 -111 -21 -120 -49 -7 -23 -45 -27 -45 -5 0 27 22 120
35 145 13 25 13 25 136 22 68 -2 126 -5 127 -7z m416 -112 c2 -10 -4 -49 -14
-88 l-19 -70 6 64 c5 52 3 62 -8 56 -15 -10 -99 -15 -99 -7 0 3 8 14 18 25 17
20 16 20 -98 13 -251 -15 -392 -32 -405 -50 -7 -9 -18 -44 -24 -77 -17 -84
-26 -67 -11 20 8 49 17 74 29 81 29 15 361 44 558 49 51 1 63 -2 67 -16z
m-1254 -243 c6 -25 22 -65 35 -89 l25 -43 -26 6 c-15 4 -39 10 -55 13 -16 3
-45 23 -64 44 -51 56 -49 99 7 169 l42 53 13 -54 c6 -30 17 -74 23 -99z"/>
</g>
</svg>
